<mxfile host="app.diagrams.net" modified="2020-12-16T13:04:31.365Z" agent="5.0 (Macintosh)" etag="nYt-aIC8mfHItfHM7cpJ" version="14.0.3" type="github">
  <diagram id="oiOQzBYxZ0PZm0F_rH9_" name="Page-1">
    <mxGraphModel dx="2066" dy="1088" grid="1" gridSize="10" guides="1" tooltips="1" connect="1" arrows="1" fold="1" page="1" pageScale="1" pageWidth="850" pageHeight="1100" math="0" shadow="0">
      <root>
        <mxCell id="0" />
        <mxCell id="1" parent="0" />
        <mxCell id="Raqt2Vy9kWauAKXNN3D_-3" style="edgeStyle=orthogonalEdgeStyle;rounded=0;orthogonalLoop=1;jettySize=auto;html=1;exitX=0.5;exitY=1;exitDx=0;exitDy=0;entryX=0.5;entryY=0;entryDx=0;entryDy=0;" edge="1" parent="1" source="Raqt2Vy9kWauAKXNN3D_-1" target="Raqt2Vy9kWauAKXNN3D_-2">
          <mxGeometry relative="1" as="geometry" />
        </mxCell>
        <mxCell id="Raqt2Vy9kWauAKXNN3D_-1" value="test" style="rounded=0;whiteSpace=wrap;html=1;" vertex="1" parent="1">
          <mxGeometry x="280" y="360" width="120" height="60" as="geometry" />
        </mxCell>
        <mxCell id="Raqt2Vy9kWauAKXNN3D_-2" value="test" style="rounded=0;whiteSpace=wrap;html=1;" vertex="1" parent="1">
          <mxGeometry x="280" y="480" width="120" height="60" as="geometry" />
        </mxCell>
      </root>
    </mxGraphModel>
  </diagram>
</mxfile>
